<svg width="256" height="256" viewBox="0 0 256 256" fill="none" xmlns="http://www.w3.org/2000/svg">
<rect width="256" height="256" rx="128" fill="url(#paint0_linear_16_38)"/>
<path d="M79.3933 95.0705C79.3933 86.6212 88.5399 81.3403 95.8573 85.565C99.2532 87.5257 101.345 91.1492 101.345 95.0705C101.345 103.52 92.1986 108.801 84.8812 104.576C81.4853 102.615 79.3933 98.9918 79.3933 95.0705ZM77.8253 125.98C75.8653 128.175 74.6892 131.095 74.6892 134.271C74.6892 137.446 75.8653 140.366 77.8253 142.561V125.98ZM106.128 116.317C100.306 121.472 96.6412 129.018 96.6412 137.406C96.6412 144.129 98.9932 150.303 102.913 155.145V159.359C102.913 162.828 100.11 165.631 96.6412 165.631H84.0972C80.6281 165.631 77.8253 162.828 77.8253 159.359V154.106C70.4165 150.578 65.2812 143.032 65.2812 134.271C65.2812 122.138 75.1009 112.319 87.2332 112.319H93.5052C98.2092 112.319 102.56 113.789 106.128 116.297V116.317ZM153.089 159.359V155.145C157.009 150.303 159.361 144.129 159.361 137.406C159.361 129.018 155.696 121.472 149.875 116.297C153.442 113.789 157.793 112.319 162.497 112.319H168.769C180.902 112.319 190.721 122.138 190.721 134.271C190.721 143.032 185.586 150.578 178.177 154.106V159.359C178.177 162.828 175.374 165.631 171.905 165.631H159.361C155.892 165.631 153.089 162.828 153.089 159.359ZM154.657 95.0705C154.657 86.6212 163.804 81.3403 171.121 85.565C174.517 87.5257 176.609 91.1492 176.609 95.0705C176.609 103.52 167.463 108.801 160.145 104.576C156.749 102.615 154.657 98.9918 154.657 95.0705ZM178.177 125.98V142.581C180.137 140.366 181.313 137.465 181.313 134.29C181.313 131.115 180.137 128.195 178.177 125.999V125.98ZM128.001 84.0945C137.658 84.0945 143.693 94.5478 138.865 102.91C136.624 106.792 132.483 109.182 128.001 109.182C118.345 109.182 112.31 98.7292 117.138 90.3665C119.379 86.4854 123.52 84.0945 128.001 84.0945ZM112.321 137.406C112.321 140.582 113.497 143.483 115.457 145.697V129.116C113.497 131.331 112.321 134.231 112.321 137.406ZM140.545 129.116V145.717C142.505 143.502 143.681 140.601 143.681 137.426C143.681 134.251 142.505 131.331 140.545 129.135V129.116ZM153.089 137.406C153.089 146.168 147.954 153.714 140.545 157.242V165.631C140.545 169.1 137.742 171.903 134.273 171.903H121.729C118.26 171.903 115.457 169.1 115.457 165.631V157.242C108.048 153.714 102.913 146.168 102.913 137.406C102.913 125.274 112.733 115.455 124.865 115.455H131.137C143.27 115.455 153.089 125.274 153.089 137.406Z" fill="#EFF6FB"/>
<defs>
<linearGradient id="paint0_linear_16_38" x1="128" y1="0" x2="128" y2="256" gradientUnits="userSpaceOnUse">
<stop stop-color="#5CA6D4"/>
<stop offset="1" stop-color="#378AC0"/>
</linearGradient>
</defs>
</svg>
