<svg width="256" height="256" viewBox="0 0 256 256" fill="none" xmlns="http://www.w3.org/2000/svg">
<rect width="256" height="256" rx="128" fill="url(#paint0_linear_16_45)"/>
<path d="M127.998 68C118.316 67.9978 108.903 71.1895 101.219 77.0803C93.5343 82.9711 88.0077 91.2321 85.4953 100.583C82.983 109.934 83.6251 119.852 87.3223 128.801C91.0194 137.75 97.5651 145.229 105.945 150.08C109.604 152.203 111.892 155.456 111.993 158.736C112.021 159.615 112.337 160.459 112.894 161.14C113.45 161.821 114.215 162.299 115.07 162.501C116.948 162.944 118.857 163.291 120.798 163.541C122.521 163.76 123.998 162.379 123.998 160.64V135.781C122.313 135.596 120.643 135.291 119.001 134.869C118.492 134.738 118.014 134.508 117.594 134.193C117.174 133.877 116.82 133.482 116.553 133.029C116.014 132.116 115.859 131.025 116.124 129.997C116.388 128.97 117.05 128.089 117.964 127.55C118.877 127.01 119.968 126.855 120.996 127.12C125.589 128.304 130.407 128.304 135.001 127.12C135.515 126.972 136.053 126.928 136.584 126.992C137.115 127.056 137.628 127.225 138.093 127.491C138.557 127.756 138.964 128.112 139.288 128.537C139.613 128.962 139.849 129.448 139.982 129.966C140.115 130.484 140.144 131.023 140.065 131.552C139.986 132.081 139.802 132.589 139.524 133.046C139.245 133.503 138.878 133.899 138.444 134.211C138.01 134.523 137.517 134.745 136.996 134.864C135.354 135.288 133.684 135.594 131.998 135.781V160.635C131.998 162.379 133.476 163.76 135.198 163.541C137.14 163.291 139.049 162.944 140.926 162.501C141.782 162.299 142.546 161.821 143.103 161.14C143.659 160.459 143.976 159.615 144.004 158.736C144.11 155.456 146.393 152.203 150.052 150.08C158.431 145.229 164.977 137.75 168.674 128.801C172.371 119.852 173.013 109.934 170.501 100.583C167.989 91.2321 162.462 82.9711 154.778 77.0803C147.093 71.1895 137.681 67.9978 127.998 68Z" fill="#EFF6FB"/>
<path fill-rule="evenodd" clip-rule="evenodd" d="M112.069 170.133C112.167 169.617 112.366 169.125 112.654 168.685C112.942 168.246 113.314 167.868 113.749 167.572C114.183 167.276 114.671 167.069 115.186 166.962C115.7 166.855 116.231 166.851 116.747 166.949C124.183 168.36 131.818 168.36 139.253 166.949C139.776 166.834 140.316 166.825 140.842 166.922C141.368 167.02 141.869 167.222 142.316 167.516C142.763 167.811 143.146 168.192 143.442 168.637C143.739 169.083 143.943 169.583 144.043 170.108C144.143 170.634 144.136 171.174 144.024 171.697C143.911 172.22 143.695 172.715 143.388 173.153C143.08 173.591 142.688 173.963 142.235 174.247C141.781 174.53 141.275 174.72 140.747 174.805C132.324 176.403 123.676 176.403 115.253 174.805C114.212 174.607 113.292 174.004 112.695 173.128C112.098 172.252 111.873 171.175 112.069 170.133ZM116.021 183.168C116.076 182.645 116.233 182.139 116.483 181.677C116.734 181.215 117.073 180.807 117.481 180.476C117.889 180.145 118.358 179.898 118.862 179.749C119.366 179.599 119.894 179.55 120.416 179.605C125.458 180.132 130.542 180.132 135.584 179.605C136.107 179.55 136.635 179.599 137.138 179.749C137.642 179.898 138.111 180.145 138.519 180.476C138.927 180.807 139.266 181.215 139.517 181.677C139.767 182.139 139.924 182.645 139.979 183.168C140.033 183.69 139.985 184.218 139.835 184.722C139.686 185.226 139.438 185.695 139.108 186.103C138.777 186.511 138.369 186.85 137.907 187.1C137.445 187.351 136.939 187.508 136.416 187.562C130.821 188.148 125.18 188.148 119.584 187.562C119.062 187.508 118.555 187.351 118.093 187.1C117.631 186.85 117.223 186.511 116.893 186.103C116.562 185.695 116.315 185.226 116.165 184.722C116.016 184.218 115.967 183.69 116.021 183.168Z" fill="#EFF6FB"/>
<defs>
<linearGradient id="paint0_linear_16_45" x1="128" y1="0" x2="128" y2="256" gradientUnits="userSpaceOnUse">
<stop stop-color="#5CA6D4"/>
<stop offset="1" stop-color="#378AC0"/>
</linearGradient>
</defs>
</svg>
