<svg width="447" height="308" viewBox="0 0 447 308" fill="none" xmlns="http://www.w3.org/2000/svg">
<rect width="447" height="308" fill="#CCCCCC"/>
<path d="M208.334 103.333C208.334 102.273 207.912 101.255 207.162 100.505C206.412 99.7549 205.395 99.3335 204.334 99.3335C203.273 99.3335 202.255 99.7549 201.505 100.505C200.755 101.255 200.334 102.273 200.334 103.333V111.76C192.654 112.373 187.619 113.877 183.918 117.584C180.211 121.285 178.707 126.325 178.088 134H283.912C283.294 126.32 281.79 121.285 278.083 117.584C274.382 113.877 269.342 112.373 261.667 111.755V103.333C261.667 102.273 261.246 101.255 260.495 100.505C259.745 99.7549 258.728 99.3335 257.667 99.3335C256.606 99.3335 255.589 99.7549 254.839 100.505C254.088 101.255 253.667 102.273 253.667 103.333V111.403C250.12 111.333 246.142 111.333 241.667 111.333H220.334C215.859 111.333 211.88 111.333 208.334 111.403V103.333Z" fill="#808080"/>
<path fill-rule="evenodd" clip-rule="evenodd" d="M177.667 154C177.667 149.525 177.667 145.547 177.736 142H284.264C284.333 145.547 284.333 149.525 284.333 154V164.667C284.333 184.779 284.333 194.837 278.082 201.083C271.832 207.328 261.778 207.333 241.667 207.333H220.333C200.221 207.333 190.163 207.333 183.917 201.083C177.672 194.832 177.667 184.779 177.667 164.667V154ZM257.666 164.667C259.081 164.667 260.438 164.105 261.438 163.105C262.438 162.104 263 160.748 263 159.333C263 157.919 262.438 156.562 261.438 155.562C260.438 154.562 259.081 154 257.666 154C256.252 154 254.895 154.562 253.895 155.562C252.895 156.562 252.333 157.919 252.333 159.333C252.333 160.748 252.895 162.104 253.895 163.105C254.895 164.105 256.252 164.667 257.666 164.667ZM257.666 186C259.081 186 260.438 185.438 261.438 184.438C262.438 183.438 263 182.081 263 180.667C263 179.252 262.438 177.896 261.438 176.895C260.438 175.895 259.081 175.333 257.666 175.333C256.252 175.333 254.895 175.895 253.895 176.895C252.895 177.896 252.333 179.252 252.333 180.667C252.333 182.081 252.895 183.438 253.895 184.438C254.895 185.438 256.252 186 257.666 186ZM236.333 159.333C236.333 160.748 235.771 162.104 234.771 163.105C233.771 164.105 232.414 164.667 231 164.667C229.585 164.667 228.229 164.105 227.229 163.105C226.228 162.104 225.667 160.748 225.667 159.333C225.667 157.919 226.228 156.562 227.229 155.562C228.229 154.562 229.585 154 231 154C232.414 154 233.771 154.562 234.771 155.562C235.771 156.562 236.333 157.919 236.333 159.333ZM236.333 180.667C236.333 182.081 235.771 183.438 234.771 184.438C233.771 185.438 232.414 186 231 186C229.585 186 228.229 185.438 227.229 184.438C226.228 183.438 225.667 182.081 225.667 180.667C225.667 179.252 226.228 177.896 227.229 176.895C228.229 175.895 229.585 175.333 231 175.333C232.414 175.333 233.771 175.895 234.771 176.895C235.771 177.896 236.333 179.252 236.333 180.667ZM204.333 164.667C205.748 164.667 207.104 164.105 208.104 163.105C209.105 162.104 209.667 160.748 209.667 159.333C209.667 157.919 209.105 156.562 208.104 155.562C207.104 154.562 205.748 154 204.333 154C202.919 154 201.562 154.562 200.562 155.562C199.562 156.562 199 157.919 199 159.333C199 160.748 199.562 162.104 200.562 163.105C201.562 164.105 202.919 164.667 204.333 164.667ZM204.333 186C205.748 186 207.104 185.438 208.104 184.438C209.105 183.438 209.667 182.081 209.667 180.667C209.667 179.252 209.105 177.896 208.104 176.895C207.104 175.895 205.748 175.333 204.333 175.333C202.919 175.333 201.562 175.895 200.562 176.895C199.562 177.896 199 179.252 199 180.667C199 182.081 199.562 183.438 200.562 184.438C201.562 185.438 202.919 186 204.333 186Z" fill="#808080"/>
</svg>
