<svg width="181" height="24" viewBox="0 0 181 24" fill="none" xmlns="http://www.w3.org/2000/svg">
<path d="M17.8299 1.35205L16.553 6.04963L13.553 3.79963L14.3688 2.18432L10.4378 2.56302L9.80302 4.54958L8.1384 3.35511L4.99027 7.36855L1.09927 9.64635L2.73099 16.9941L4.55302 17.2996L9.80302 14.2996L13.2896 16.741L14.303 15.4241L15.803 18.7996L19.875 19.4745L22.9007 13.5496L22.6188 10.5167L19.553 6.79963L17.8298 1.35205H17.8299ZM17.1384 20.6288L17.8462 22.6484L18.803 22.5496L19.339 20.8685L17.1384 20.6288H17.1384Z" fill="white"/>
<path d="M33.088 18V6.704H34.848L35.6 8.96V18H33.088ZM40.88 18L34.224 9.472L34.848 6.704L41.504 15.232L40.88 18ZM40.88 18L40.208 15.744V6.704H42.72V18H40.88ZM47.9245 18.16C47.2098 18.16 46.5698 17.984 46.0045 17.632C45.4498 17.28 45.0072 16.8 44.6765 16.192C44.3565 15.584 44.1965 14.8907 44.1965 14.112C44.1965 13.3333 44.3565 12.64 44.6765 12.032C45.0072 11.424 45.4498 10.944 46.0045 10.592C46.5698 10.24 47.2098 10.064 47.9245 10.064C48.4472 10.064 48.9165 10.1653 49.3325 10.368C49.7592 10.5707 50.1058 10.8533 50.3725 11.216C50.6392 11.568 50.7885 11.9733 50.8205 12.432V15.792C50.7885 16.2507 50.6392 16.6613 50.3725 17.024C50.1165 17.376 49.7752 17.6533 49.3485 17.856C48.9218 18.0587 48.4472 18.16 47.9245 18.16ZM48.4205 15.952C48.9432 15.952 49.3645 15.7813 49.6845 15.44C50.0045 15.088 50.1645 14.6453 50.1645 14.112C50.1645 13.7493 50.0898 13.4293 49.9405 13.152C49.8018 12.8747 49.5992 12.6613 49.3325 12.512C49.0765 12.352 48.7778 12.272 48.4365 12.272C48.0952 12.272 47.7912 12.352 47.5245 12.512C47.2685 12.6613 47.0605 12.8747 46.9005 13.152C46.7512 13.4293 46.6765 13.7493 46.6765 14.112C46.6765 14.464 46.7512 14.7787 46.9005 15.056C47.0498 15.3333 47.2578 15.552 47.5245 15.712C47.7912 15.872 48.0898 15.952 48.4205 15.952ZM50.0685 18V15.904L50.4365 14.016L50.0685 12.128V10.224H52.4685V18H50.0685ZM56.6401 18L53.3441 10.224H55.9841L58.2241 16.704H57.0721L59.3121 10.224H61.9041L58.6081 18H56.6401ZM62.7859 18V10.224H65.2339V18H62.7859ZM64.0179 9.152C63.6339 9.152 63.3139 9.024 63.0579 8.768C62.8125 8.50133 62.6899 8.18133 62.6899 7.808C62.6899 7.424 62.8125 7.104 63.0579 6.848C63.3139 6.592 63.6339 6.464 64.0179 6.464C64.4019 6.464 64.7165 6.592 64.9619 6.848C65.2072 7.104 65.3299 7.424 65.3299 7.808C65.3299 8.18133 65.2072 8.50133 64.9619 8.768C64.7165 9.024 64.4019 9.152 64.0179 9.152ZM70.2538 21.488C69.4004 21.488 68.6484 21.3387 67.9978 21.04C67.3578 20.752 66.8511 20.3413 66.4778 19.808L67.9818 18.304C68.2591 18.6347 68.5684 18.8853 68.9098 19.056C69.2618 19.2267 69.6831 19.312 70.1738 19.312C70.7818 19.312 71.2564 19.1627 71.5978 18.864C71.9498 18.5653 72.1258 18.144 72.1258 17.6V15.616L72.5418 13.92L72.1738 12.224V10.224H74.5738V17.536C74.5738 18.336 74.3871 19.0293 74.0138 19.616C73.6404 20.2027 73.1284 20.6613 72.4778 20.992C71.8271 21.3227 71.0858 21.488 70.2538 21.488ZM70.1418 17.76C69.4271 17.76 68.7924 17.5893 68.2378 17.248C67.6831 16.9067 67.2458 16.4427 66.9258 15.856C66.6058 15.2693 66.4458 14.6187 66.4458 13.904C66.4458 13.1787 66.6058 12.528 66.9258 11.952C67.2458 11.3653 67.6831 10.9067 68.2378 10.576C68.7924 10.2347 69.4271 10.064 70.1418 10.064C70.6751 10.064 71.1498 10.1653 71.5658 10.368C71.9924 10.56 72.3338 10.8373 72.5898 11.2C72.8564 11.552 73.0058 11.9627 73.0378 12.432V15.392C73.0058 15.8507 72.8564 16.2613 72.5898 16.624C72.3338 16.976 71.9924 17.2533 71.5658 17.456C71.1391 17.6587 70.6644 17.76 70.1418 17.76ZM70.6058 15.584C70.9471 15.584 71.2404 15.5093 71.4858 15.36C71.7418 15.2107 71.9338 15.0133 72.0618 14.768C72.2004 14.512 72.2698 14.224 72.2698 13.904C72.2698 13.584 72.2004 13.296 72.0618 13.04C71.9338 12.784 71.7418 12.5813 71.4858 12.432C71.2404 12.2827 70.9471 12.208 70.6058 12.208C70.2751 12.208 69.9818 12.2827 69.7258 12.432C69.4698 12.5813 69.2724 12.784 69.1338 13.04C68.9951 13.296 68.9258 13.584 68.9258 13.904C68.9258 14.2027 68.9951 14.4853 69.1338 14.752C69.2724 15.008 69.4644 15.2107 69.7098 15.36C69.9658 15.5093 70.2644 15.584 70.6058 15.584ZM79.5495 18.16C78.8348 18.16 78.1948 17.984 77.6295 17.632C77.0748 17.28 76.6322 16.8 76.3015 16.192C75.9815 15.584 75.8215 14.8907 75.8215 14.112C75.8215 13.3333 75.9815 12.64 76.3015 12.032C76.6322 11.424 77.0748 10.944 77.6295 10.592C78.1948 10.24 78.8348 10.064 79.5495 10.064C80.0722 10.064 80.5415 10.1653 80.9575 10.368C81.3842 10.5707 81.7308 10.8533 81.9975 11.216C82.2642 11.568 82.4135 11.9733 82.4455 12.432V15.792C82.4135 16.2507 82.2642 16.6613 81.9975 17.024C81.7415 17.376 81.4002 17.6533 80.9735 17.856C80.5468 18.0587 80.0722 18.16 79.5495 18.16ZM80.0455 15.952C80.5682 15.952 80.9895 15.7813 81.3095 15.44C81.6295 15.088 81.7895 14.6453 81.7895 14.112C81.7895 13.7493 81.7148 13.4293 81.5655 13.152C81.4268 12.8747 81.2242 12.6613 80.9575 12.512C80.7015 12.352 80.4028 12.272 80.0615 12.272C79.7202 12.272 79.4162 12.352 79.1495 12.512C78.8935 12.6613 78.6855 12.8747 78.5255 13.152C78.3762 13.4293 78.3015 13.7493 78.3015 14.112C78.3015 14.464 78.3762 14.7787 78.5255 15.056C78.6748 15.3333 78.8828 15.552 79.1495 15.712C79.4162 15.872 79.7148 15.952 80.0455 15.952ZM81.6935 18V15.904L82.0615 14.016L81.6935 12.128V10.224H84.0935V18H81.6935ZM86.9211 18V7.008H89.3691V18H86.9211ZM85.1611 12.304V10.224H91.1291V12.304H85.1611ZM92.2078 18V10.224H94.6558V18H92.2078ZM93.4398 9.152C93.0558 9.152 92.7358 9.024 92.4798 8.768C92.2344 8.50133 92.1118 8.18133 92.1118 7.808C92.1118 7.424 92.2344 7.104 92.4798 6.848C92.7358 6.592 93.0558 6.464 93.4398 6.464C93.8238 6.464 94.1384 6.592 94.3838 6.848C94.6291 7.104 94.7518 7.424 94.7518 7.808C94.7518 8.18133 94.6291 8.50133 94.3838 8.768C94.1384 9.024 93.8238 9.152 93.4398 9.152ZM101.516 18V13.568C101.516 13.1627 101.388 12.8373 101.132 12.592C100.886 12.336 100.572 12.208 100.188 12.208C99.921 12.208 99.6863 12.2667 99.4836 12.384C99.281 12.4907 99.121 12.6507 99.0036 12.864C98.8863 13.0667 98.8276 13.3013 98.8276 13.568L97.8836 13.104C97.8836 12.496 98.017 11.9627 98.2836 11.504C98.5503 11.0453 98.9183 10.6933 99.3876 10.448C99.8676 10.192 100.406 10.064 101.004 10.064C101.58 10.064 102.086 10.2027 102.524 10.48C102.972 10.7467 103.324 11.104 103.58 11.552C103.836 12 103.964 12.4907 103.964 13.024V18H101.516ZM96.3796 18V10.224H98.8276V18H96.3796ZM108.832 21.488C107.979 21.488 107.227 21.3387 106.576 21.04C105.936 20.752 105.429 20.3413 105.056 19.808L106.56 18.304C106.837 18.6347 107.147 18.8853 107.488 19.056C107.84 19.2267 108.261 19.312 108.752 19.312C109.36 19.312 109.835 19.1627 110.176 18.864C110.528 18.5653 110.704 18.144 110.704 17.6V15.616L111.12 13.92L110.752 12.224V10.224H113.152V17.536C113.152 18.336 112.965 19.0293 112.592 19.616C112.219 20.2027 111.707 20.6613 111.056 20.992C110.405 21.3227 109.664 21.488 108.832 21.488ZM108.72 17.76C108.005 17.76 107.371 17.5893 106.816 17.248C106.261 16.9067 105.824 16.4427 105.504 15.856C105.184 15.2693 105.024 14.6187 105.024 13.904C105.024 13.1787 105.184 12.528 105.504 11.952C105.824 11.3653 106.261 10.9067 106.816 10.576C107.371 10.2347 108.005 10.064 108.72 10.064C109.253 10.064 109.728 10.1653 110.144 10.368C110.571 10.56 110.912 10.8373 111.168 11.2C111.435 11.552 111.584 11.9627 111.616 12.432V15.392C111.584 15.8507 111.435 16.2613 111.168 16.624C110.912 16.976 110.571 17.2533 110.144 17.456C109.717 17.6587 109.243 17.76 108.72 17.76ZM109.184 15.584C109.525 15.584 109.819 15.5093 110.064 15.36C110.32 15.2107 110.512 15.0133 110.64 14.768C110.779 14.512 110.848 14.224 110.848 13.904C110.848 13.584 110.779 13.296 110.64 13.04C110.512 12.784 110.32 12.5813 110.064 12.432C109.819 12.2827 109.525 12.208 109.184 12.208C108.853 12.208 108.56 12.2827 108.304 12.432C108.048 12.5813 107.851 12.784 107.712 13.04C107.573 13.296 107.504 13.584 107.504 13.904C107.504 14.2027 107.573 14.4853 107.712 14.752C107.851 15.008 108.043 15.2107 108.288 15.36C108.544 15.5093 108.843 15.584 109.184 15.584ZM117.559 18L122.103 6.896H123.191L127.719 18H126.087L122.359 8.608H122.919L119.159 18H117.559ZM119.719 15.488V14.176H125.559V15.488H119.719ZM132.034 18.16C131.415 18.16 130.855 18.0213 130.354 17.744C129.863 17.456 129.479 17.0613 129.202 16.56C128.925 16.0587 128.786 15.4773 128.786 14.816V10.4H130.226V14.752C130.226 15.168 130.295 15.5307 130.434 15.84C130.583 16.1387 130.797 16.368 131.074 16.528C131.351 16.688 131.677 16.768 132.05 16.768C132.615 16.768 133.058 16.592 133.378 16.24C133.698 15.8773 133.858 15.3813 133.858 14.752V10.4H135.298V14.816C135.298 15.4773 135.159 16.0587 134.882 16.56C134.605 17.0613 134.221 17.456 133.73 17.744C133.25 18.0213 132.685 18.16 132.034 18.16ZM139.644 18.16C139.217 18.16 138.812 18.1067 138.428 18C138.055 17.8827 137.708 17.7227 137.388 17.52C137.068 17.3067 136.791 17.056 136.556 16.768L137.484 15.84C137.761 16.1813 138.081 16.4373 138.444 16.608C138.807 16.768 139.212 16.848 139.66 16.848C140.108 16.848 140.455 16.7733 140.7 16.624C140.945 16.464 141.068 16.2453 141.068 15.968C141.068 15.6907 140.967 15.4773 140.764 15.328C140.572 15.168 140.321 15.04 140.012 14.944C139.703 14.8373 139.372 14.736 139.02 14.64C138.679 14.5333 138.353 14.4 138.044 14.24C137.735 14.08 137.479 13.8613 137.276 13.584C137.084 13.3067 136.988 12.9387 136.988 12.48C136.988 12.0213 137.1 11.6267 137.324 11.296C137.548 10.9547 137.857 10.6933 138.252 10.512C138.657 10.3307 139.143 10.24 139.708 10.24C140.305 10.24 140.833 10.3467 141.292 10.56C141.761 10.7627 142.145 11.072 142.444 11.488L141.516 12.416C141.303 12.1387 141.036 11.9253 140.716 11.776C140.407 11.6267 140.055 11.552 139.66 11.552C139.244 11.552 138.924 11.6267 138.7 11.776C138.487 11.9147 138.38 12.112 138.38 12.368C138.38 12.624 138.476 12.8213 138.668 12.96C138.86 13.0987 139.111 13.216 139.42 13.312C139.74 13.408 140.071 13.5093 140.412 13.616C140.753 13.712 141.079 13.8453 141.388 14.016C141.697 14.1867 141.948 14.416 142.14 14.704C142.343 14.992 142.444 15.3707 142.444 15.84C142.444 16.5547 142.188 17.12 141.676 17.536C141.175 17.952 140.497 18.16 139.644 18.16ZM145.224 18V7.216H146.664V18H145.224ZM143.352 11.712V10.4H148.536V11.712H143.352ZM149.947 18V10.4H151.387V18H149.947ZM151.387 13.664L150.843 13.424C150.843 12.4533 151.067 11.68 151.515 11.104C151.963 10.528 152.608 10.24 153.451 10.24C153.835 10.24 154.181 10.3093 154.491 10.448C154.8 10.576 155.088 10.7947 155.355 11.104L154.411 12.08C154.251 11.9093 154.075 11.7867 153.883 11.712C153.691 11.6373 153.467 11.6 153.211 11.6C152.677 11.6 152.24 11.7707 151.899 12.112C151.557 12.4533 151.387 12.9707 151.387 13.664ZM159.351 18.16C158.657 18.16 158.028 17.9893 157.463 17.648C156.897 17.296 156.449 16.8213 156.118 16.224C155.799 15.6267 155.639 14.9547 155.639 14.208C155.639 13.4613 155.799 12.7893 156.118 12.192C156.449 11.5947 156.892 11.12 157.447 10.768C158.012 10.416 158.647 10.24 159.351 10.24C159.927 10.24 160.439 10.3627 160.887 10.608C161.345 10.8427 161.713 11.1733 161.991 11.6C162.268 12.016 162.423 12.5013 162.455 13.056V15.344C162.423 15.888 162.268 16.3733 161.991 16.8C161.724 17.2267 161.361 17.5627 160.903 17.808C160.455 18.0427 159.937 18.16 159.351 18.16ZM159.591 16.8C160.305 16.8 160.881 16.56 161.319 16.08C161.756 15.5893 161.975 14.9653 161.975 14.208C161.975 13.6853 161.873 13.232 161.671 12.848C161.479 12.4533 161.201 12.1493 160.839 11.936C160.476 11.712 160.055 11.6 159.575 11.6C159.095 11.6 158.668 11.712 158.295 11.936C157.932 12.16 157.644 12.4693 157.431 12.864C157.228 13.248 157.127 13.6907 157.127 14.192C157.127 14.704 157.228 15.1573 157.431 15.552C157.644 15.936 157.937 16.24 158.311 16.464C158.684 16.688 159.111 16.8 159.591 16.8ZM161.879 18V15.952L162.151 14.096L161.879 12.256V10.4H163.335V18H161.879ZM165.431 18V6.576H166.871V18H165.431ZM168.994 18V10.4H170.434V18H168.994ZM169.714 8.88C169.447 8.88 169.229 8.79467 169.058 8.624C168.887 8.44267 168.802 8.21867 168.802 7.952C168.802 7.696 168.887 7.48267 169.058 7.312C169.229 7.13067 169.447 7.04 169.714 7.04C169.981 7.04 170.199 7.13067 170.37 7.312C170.541 7.48267 170.626 7.696 170.626 7.952C170.626 8.21867 170.541 8.44267 170.37 8.624C170.199 8.79467 169.981 8.88 169.714 8.88ZM175.788 18.16C175.095 18.16 174.465 17.9893 173.9 17.648C173.335 17.296 172.887 16.8213 172.556 16.224C172.236 15.6267 172.076 14.9547 172.076 14.208C172.076 13.4613 172.236 12.7893 172.556 12.192C172.887 11.5947 173.329 11.12 173.884 10.768C174.449 10.416 175.084 10.24 175.788 10.24C176.364 10.24 176.876 10.3627 177.324 10.608C177.783 10.8427 178.151 11.1733 178.428 11.6C178.705 12.016 178.86 12.5013 178.892 13.056V15.344C178.86 15.888 178.705 16.3733 178.428 16.8C178.161 17.2267 177.799 17.5627 177.34 17.808C176.892 18.0427 176.375 18.16 175.788 18.16ZM176.028 16.8C176.743 16.8 177.319 16.56 177.756 16.08C178.193 15.5893 178.412 14.9653 178.412 14.208C178.412 13.6853 178.311 13.232 178.108 12.848C177.916 12.4533 177.639 12.1493 177.276 11.936C176.913 11.712 176.492 11.6 176.012 11.6C175.532 11.6 175.105 11.712 174.732 11.936C174.369 12.16 174.081 12.4693 173.868 12.864C173.665 13.248 173.564 13.6907 173.564 14.192C173.564 14.704 173.665 15.1573 173.868 15.552C174.081 15.936 174.375 16.24 174.748 16.464C175.121 16.688 175.548 16.8 176.028 16.8ZM178.316 18V15.952L178.588 14.096L178.316 12.256V10.4H179.772V18H178.316Z" fill="white"/>
</svg>
