<svg width="256" height="256" viewBox="0 0 256 256" fill="none" xmlns="http://www.w3.org/2000/svg">
<rect width="256" height="256" rx="128" fill="url(#paint0_linear_16_41)"/>
<path fill-rule="evenodd" clip-rule="evenodd" d="M188.74 83.5488C191.479 81.9804 192.427 78.4889 190.859 75.7503C189.29 73.0117 185.798 72.0632 183.06 73.6317L160.763 86.4019L141.286 87.316C136.075 87.5605 131.03 89.0299 126.544 91.5637C120.898 86.6699 113.451 84.5649 106.129 85.9083L89.6776 88.9264L70.836 78.1818C69.421 77.3749 67.6836 77.3819 66.2752 78.2001C64.8667 79.0183 64 80.5241 64 82.1529V143.661C64 145.219 64.7934 146.669 66.1051 147.51L115.662 179.264C123.645 184.38 133.772 184.009 141.348 178.316L141.36 178.307L168.654 158.023C168.971 157.787 169.249 157.517 169.486 157.224C169.552 157.18 169.617 157.134 169.681 157.087L188.506 143.4C191.058 141.545 191.622 137.971 189.766 135.418C187.911 132.866 184.337 132.301 181.785 134.157L166.935 144.954L152.164 129.994C156.457 128.565 160.277 125.834 162.676 122.329C164.458 119.725 163.792 116.169 161.189 114.386C158.584 112.603 155.028 113.269 153.245 115.873C152.216 117.377 150.001 118.949 147.287 119.486C144.794 119.979 142.222 119.542 139.986 117.66L139.7 117.37C137.672 115.316 134.43 115.097 132.144 116.86L121.17 125.323C118.738 127.199 115.24 126.708 113.417 124.234C111.737 121.953 112.07 118.767 114.183 116.883L114.226 116.845L128.394 104.213C132.111 100.9 136.851 98.9652 141.822 98.7319L162.675 97.7533C163.58 97.7109 164.462 97.454 165.247 97.004L188.74 83.5488Z" fill="#EFF6FB"/>
<defs>
<linearGradient id="paint0_linear_16_41" x1="128" y1="0" x2="128" y2="256" gradientUnits="userSpaceOnUse">
<stop stop-color="#5CA6D4"/>
<stop offset="1" stop-color="#378AC0"/>
</linearGradient>
</defs>
</svg>
